<?xml version="1.0" encoding="UTF-8" standalone="no"?>
<!-- Generator: Adobe Illustrator 24.2.0, SVG Export Plug-In . SVG Version: 6.00 Build 0)  -->

<svg
   xmlns:dc="http://purl.org/dc/elements/1.1/"
   xmlns:cc="http://creativecommons.org/ns#"
   xmlns:rdf="http://www.w3.org/1999/02/22-rdf-syntax-ns#"
   xmlns:svg="http://www.w3.org/2000/svg"
   xmlns="http://www.w3.org/2000/svg"
   xmlns:sodipodi="http://sodipodi.sourceforge.net/DTD/sodipodi-0.dtd"
   xmlns:inkscape="http://www.inkscape.org/namespaces/inkscape"
   version="1.1"
   id="Layer_1"
   x="0px"
   y="0px"
   viewBox="0 0 125.14 125.24"
   style="enable-background:new 0 0 125.14 125.24;"
   xml:space="preserve"
   sodipodi:docname="button-keyboard-hover.svg"
   inkscape:version="0.92.4 (5da689c313, 2019-01-14)"><metadata
   id="metadata13"><rdf:RDF><cc:Work
       rdf:about=""><dc:format>image/svg+xml</dc:format><dc:type
         rdf:resource="http://purl.org/dc/dcmitype/StillImage" /><dc:title></dc:title></cc:Work></rdf:RDF></metadata><defs
   id="defs11" /><sodipodi:namedview
   pagecolor="#ffffff"
   bordercolor="#666666"
   borderopacity="1"
   objecttolerance="10"
   gridtolerance="10"
   guidetolerance="10"
   inkscape:pageopacity="0"
   inkscape:pageshadow="2"
   inkscape:window-width="716"
   inkscape:window-height="480"
   id="namedview9"
   showgrid="false"
   inkscape:zoom="1.884382"
   inkscape:cx="62.57"
   inkscape:cy="62.619999"
   inkscape:window-x="2257"
   inkscape:window-y="909"
   inkscape:window-maximized="0"
   inkscape:current-layer="Layer_1" />
<style
   type="text/css"
   id="style2">
	.st0{fill:#FFFFFF;stroke:#000000;stroke-width:4.0707;stroke-miterlimit:10;}
</style>
<path
   class="st0"
   d="M122.83,24.63c-0.01-12.78-9.28-22.03-22.08-22.04c-25.33-0.01-50.65-0.01-75.98,0  c-12.91,0-22.16,9.23-22.16,22.12c-0.01,25.32-0.01,50.65,0,75.97c0.01,12.89,9.25,22.12,22.16,22.12c25.27,0.01,50.54,0.01,75.81,0  c13.02,0,22.24-9.2,22.25-22.2c0.01-12.58,0-25.16,0-37.74C122.84,50.12,122.85,37.37,122.83,24.63z"
   id="path4" />

<g
   transform="matrix(4.5024745,0,0,4.5024745,-4.9671178,-7.1683558)"
   id="g1794"><path
     inkscape:connector-curvature="0"
     d="M 25,21 H 5 V 10 H 25 Z M 6,20 H 24 V 11 H 6 Z"
     id="path1756" /><rect
     x="11"
     y="18"
     width="8"
     height="1"
     id="rect1758" /><rect
     x="8"
     y="16"
     width="2"
     height="1"
     id="rect1760" /><rect
     x="11"
     y="16"
     width="2"
     height="1"
     id="rect1762" /><rect
     x="14"
     y="16"
     width="2"
     height="1"
     id="rect1764" /><rect
     x="17"
     y="16"
     width="2"
     height="1"
     id="rect1766" /><rect
     x="20"
     y="16"
     width="2"
     height="1"
     id="rect1768" /><rect
     x="8"
     y="14"
     width="2"
     height="1"
     id="rect1770" /><rect
     x="11"
     y="14"
     width="2"
     height="1"
     id="rect1772" /><rect
     x="14"
     y="14"
     width="2"
     height="1"
     id="rect1774" /><rect
     x="17"
     y="14"
     width="2"
     height="1"
     id="rect1776" /><rect
     x="20"
     y="14"
     width="2"
     height="1"
     id="rect1778" /><rect
     x="8"
     y="12"
     width="2"
     height="1"
     id="rect1780" /><rect
     x="11"
     y="12"
     width="2"
     height="1"
     id="rect1782" /><rect
     x="14"
     y="12"
     width="2"
     height="1"
     id="rect1784" /><rect
     x="17"
     y="12"
     width="2"
     height="1"
     id="rect1786" /><rect
     x="20"
     y="12"
     width="2"
     height="1"
     id="rect1788" /><rect
     x="20"
     y="18"
     width="2"
     height="1"
     id="rect1790" /><rect
     x="8"
     y="18"
     width="2"
     height="1"
     id="rect1792" /></g></svg>