<svg xmlns="http://www.w3.org/2000/svg" enable-background="new 0 0 125.14 125.24" version="1.1" viewBox="0 0 125.14 125.24" xml:space="preserve"><metadata/><style type="text/css">.st0{opacity:.74;fill:#d7d7d7}</style><path d="m122.83 24.63c-0.01-12.78-9.28-22.03-22.08-22.04-25.33-0.01-50.65-0.01-75.98 0-12.91 0-22.16 9.23-22.16 22.12-0.01 25.32-0.01 50.65 0 75.97 0.01 12.89 9.25 22.12 22.16 22.12 25.27 0.01 50.54 0.01 75.81 0 13.02 0 22.24-9.2 22.25-22.2 0.01-12.58 0-25.16 0-37.74 0.01-12.74 0.02-25.49 0-38.23z" class="st0"/><g transform="matrix(4.5025 0 0 4.5025 -4.9671 -7.1684)"><path d="m25 21h-20v-11h20zm-19-1h18v-9h-18z"/><rect width="8" height="1" x="11" y="18"/><rect width="2" height="1" x="8" y="16"/><rect width="2" height="1" x="11" y="16"/><rect width="2" height="1" x="14" y="16"/><rect width="2" height="1" x="17" y="16"/><rect width="2" height="1" x="20" y="16"/><rect width="2" height="1" x="8" y="14"/><rect width="2" height="1" x="11" y="14"/><rect width="2" height="1" x="14" y="14"/><rect width="2" height="1" x="17" y="14"/><rect width="2" height="1" x="20" y="14"/><rect width="2" height="1" x="8" y="12"/><rect width="2" height="1" x="11" y="12"/><rect width="2" height="1" x="14" y="12"/><rect width="2" height="1" x="17" y="12"/><rect width="2" height="1" x="20" y="12"/><rect width="2" height="1" x="20" y="18"/><rect width="2" height="1" x="8" y="18"/></g></svg>