<svg xmlns="http://www.w3.org/2000/svg" xmlns:svg="http://www.w3.org/2000/svg" id="Layer_1" x="0" y="0" version="1.1" viewBox="0 0 125.14 125.24" xml:space="preserve" style="enable-background:new 0 0 125.14 125.24"><metadata id="metadata13"/><style id="style2" type="text/css">.st0{fill:#fff;stroke:#000;stroke-width:4.0707;stroke-miterlimit:10}</style><path id="path4" d="M122.83,24.63c-0.01-12.78-9.28-22.03-22.08-22.04c-25.33-0.01-50.65-0.01-75.98,0 c-12.91,0-22.16,9.23-22.16,22.12c-0.01,25.32-0.01,50.65,0,75.97c0.01,12.89,9.25,22.12,22.16,22.12c25.27,0.01,50.54,0.01,75.81,0 c13.02,0,22.24-9.2,22.25-22.2c0.01-12.58,0-25.16,0-37.74C122.84,50.12,122.85,37.37,122.83,24.63z" class="st0"/><g id="g1794" transform="matrix(4.5024745,0,0,4.5024745,-4.9671178,-7.1683558)"><path id="path1756" d="M 25,21 H 5 V 10 H 25 Z M 6,20 H 24 V 11 H 6 Z"/><rect id="rect1758" width="8" height="1" x="11" y="18"/><rect id="rect1760" width="2" height="1" x="8" y="16"/><rect id="rect1762" width="2" height="1" x="11" y="16"/><rect id="rect1764" width="2" height="1" x="14" y="16"/><rect id="rect1766" width="2" height="1" x="17" y="16"/><rect id="rect1768" width="2" height="1" x="20" y="16"/><rect id="rect1770" width="2" height="1" x="8" y="14"/><rect id="rect1772" width="2" height="1" x="11" y="14"/><rect id="rect1774" width="2" height="1" x="14" y="14"/><rect id="rect1776" width="2" height="1" x="17" y="14"/><rect id="rect1778" width="2" height="1" x="20" y="14"/><rect id="rect1780" width="2" height="1" x="8" y="12"/><rect id="rect1782" width="2" height="1" x="11" y="12"/><rect id="rect1784" width="2" height="1" x="14" y="12"/><rect id="rect1786" width="2" height="1" x="17" y="12"/><rect id="rect1788" width="2" height="1" x="20" y="12"/><rect id="rect1790" width="2" height="1" x="20" y="18"/><rect id="rect1792" width="2" height="1" x="8" y="18"/></g></svg>