<svg xmlns="http://www.w3.org/2000/svg" width="87.37" height="62.87" data-name="Layer 1" version="1.1" viewBox="0 0 87.37 62.87"><metadata/><title>112all</title><path fill="#eb6e61" d="m4.1401 11.27a12.83 12.83 0 0 0-4.14 9v6.94a8.08 8.08 0 0 0 3.18 6.46 8.08 8.08 0 0 0 4.93 1.68 8.23 8.23 0 0 0 2.14-0.28l18.28-4.92a8.16 8.16 0 0 0 6-7.86v-4a92.37 92.37 0 0 1 18.25 0v4a8.15 8.15 0 0 0 6 7.86l18.28 4.92a8.14 8.14 0 0 0 10.31-7.86v-6.89c0-6.1-5-11.52-14.13-15.26-8-3.27-18.46-5.06-29.56-5.06s-21.6 1.8-29.56 5.06a30.28 30.28 0 0 0-9.98 6.21zm39.54-5.28c10.33 0 20 1.64 27.28 4.62 6.61 2.71 10.41 6.25 10.41 9.71v6.89a2.14 2.14 0 0 1-2.69 2.06l-18.29-4.92a2.14 2.14 0 0 1-1.58-2.07v-4.56a5.36 5.36 0 0 0-4.79-5.34 98.18 98.18 0 0 0-20.67 0 5.36 5.36 0 0 0-4.79 5.34v4.57a2.14 2.14 0 0 1-1.58 2.07l-18.3 4.91a2.14 2.14 0 0 1-2.7-2.07v-6.88a6.93 6.93 0 0 1 2.4-4.81 24.46 24.46 0 0 1 8-4.91c7.3-2.97 16.96-4.61 27.3-4.61z"/><polygon fill="#eb6e61" points="38.46 63.65 34.57 68.22 50 81.36 65.43 68.22 61.54 63.65 53 70.92 53 47.49 47 47.49 47 70.92" transform="translate(-6.3199 -18.49)"/></svg>