<svg xmlns="http://www.w3.org/2000/svg" width="70" height="64" fill="none" version="1.1" viewBox="0 0 70 64"><metadata/><path fill="#000" d="m35 0c-19.444 0-35 13.474-35 30.316v23.579c0 2.6801 1.2292 5.2504 3.4171 7.1455 2.1879 1.8951 5.1554 2.9598 8.2496 2.9598h7.2916v-26.947h-11.181v-6.7368c0-6.2535 2.868-12.251 7.9732-16.673 5.1051-4.422 12.029-6.9062 19.249-6.9062s14.144 2.4842 19.249 6.9062c5.1052 4.4219 7.9732 10.419 7.9732 16.673v6.7368h-11.91v26.947h8.0208c3.0942 0 6.0617-1.0647 8.2496-2.9598s3.4171-4.4654 3.4171-7.1455v-23.579c0-16.842-15.672-30.316-35-30.316z"/></svg>