<svg xmlns="http://www.w3.org/2000/svg" xmlns:xlink="http://www.w3.org/1999/xlink" id="Layer_1" x="0" y="0" version="1.1" viewBox="0 0 32 32" xml:space="preserve" style="enable-background:new 0 0 32 32"><style type="text/css">.st0{display:none}.st1{fill-rule:evenodd;clip-rule:evenodd}.st1,.st2{display:inline;fill:#b9bbbe}.st3{fill:#007aff}</style><g id="Layer_1_1_" class="st0"><path d="M22.5,14.4h1.9v3.3h-1.9c-0.2,0.8-0.5,1.5-1,2.1l1.2,1.2L21,22.6l-1.2-1.2c-0.6,0.4-1.4,0.8-2.1,1v1.9h-3.3 v-1.9c-0.8-0.2-1.5-0.5-2.1-1l-1.2,1.2L9.4,21l1.2-1.2c-0.4-0.6-0.8-1.4-1-2.1h-2v-3.3h1.9c0.2-0.8,0.5-1.5,1-2.1L9.3,11L11,9.2 l1.2,1.2c0.6-0.4,1.4-0.8,2.1-1V7.6h3.3v1.9c0.8,0.2,1.5,0.5,2.1,1l1.2-1.2l1.7,1.7l-1.2,1.1C22,12.9,22.2,13.5,22.5,14.4z M15.9,19.3c1.8,0,3.3-1.5,3.3-3.3s-1.5-3.3-3.3-3.3s-3.3,1.5-3.3,3.3S14.1,19.3,15.9,19.3z" class="st1"/></g><g id="Layer_3" class="st0"><path d="M18.5,15.1c0,1.4-1.1,2.5-2.5,2.5c-1.3,0-2.5-1.1-2.5-2.5v-5c0-1.4,1.1-2.5,2.5-2.5s2.5,1.1,2.5,2.5V15.1z M15.9,19.5c2.3,0,4.4-1.8,4.4-4.3h1.4c0,2.9-2.3,5.2-5,5.6v2.7h-1.6v-2.7c-2.7-0.4-5-2.8-5-5.6h1.4C11.5,17.6,13.6,19.5,15.9,19.5 z M15.9,9.3c-0.7,0-0.8,0.6-0.8,0.8v5c0,0.3,0.2,0.8,0.8,0.8c0.7,0,0.8-0.6,0.8-0.8v-5C16.8,9.9,16.6,9.3,15.9,9.3z" class="st1"/><path d="M18.5,15.1c0,1.4-1.1,2.5-2.5,2.5c-1.3,0-2.5-1.1-2.5-2.5v-5c0-1.4,1.1-2.5,2.5-2.5s2.5,1.1,2.5,2.5V15.1z M15.9,19.5c2.3,0,4.4-1.8,4.4-4.3h1.4c0,2.9-2.3,5.2-5,5.6v3.6h-1.6v-3.6c-2.7-0.4-5-2.8-5-5.6h1.4C11.5,17.6,13.6,19.5,15.9,19.5 z" class="st1"/></g><g id="Layer_4" class="st0"><path d="M22.8,12.6l-2,2v-2.4c0-1.1-0.9-2-1.9-2H9.5c-1.1,0-1.9,0.9-1.9,2v7c0,1.1,0.9,2,1.9,2h9.1 c1.1,0,1.9-0.9,1.9-2V17l2,2c0.6,0.6,1.6,0.1,1.6-0.7v-4.9C24.3,12.4,23.3,12,22.8,12.6z" class="st2"/></g><g><path d="M16.1,6.1c-2.3,2.3-4.6,4.6-6.9,6.9c0.8,0.8,1.5,1.5,2.3,2.3c1-1,1.9-1.9,3-3c0,3.6,0,7.2,0,10.9 c-0.1,0-0.1,0-0.2,0c-3.3,0-6.7,0-10,0c-1.4,0-2.6-0.9-2.8-2.3c0-0.2,0-0.4,0-0.6c0-4.7,0-9.3,0-14c0-1.7,1.2-2.9,2.9-2.9 c7.8,0,15.6,0,23.4,0c1.7,0,2.9,1.2,2.9,2.9c0,4.7,0,9.4,0,14.1c0,1.5-1.3,2.8-2.8,2.8c-3.3,0-6.6,0-9.8,0c-0.1,0-0.1,0-0.2,0 c0-3.6,0-7.2,0-10.8c1,1,2,2,2.9,2.9c0.8-0.8,1.6-1.6,2.3-2.3C20.7,10.7,18.4,8.4,16.1,6.1z" class="st3"/><path d="M31.5,25.8c0,0.9,0,1.9,0,2.8c-10.4,0-20.7,0-31.1,0c0-0.9,0-1.9,0-2.8C10.8,25.8,21.2,25.8,31.5,25.8z" class="st3"/></g></svg>