<svg xmlns="http://www.w3.org/2000/svg" width="32" height="32" fill="none" viewBox="0 0 32 32"><mask id="path-1-outside-1" width="32" height="32" x="0" y="0" fill="#000" maskUnits="userSpaceOnUse"><rect width="32" height="32" fill="#fff"/><path fill-rule="evenodd" d="M16 2C23.732 2 30 8.26801 30 16C30 23.732 23.732 30 16 30C8.26801 30 2 23.732 2 16C2 8.26801 8.26801 2 16 2ZM16.0091 18.4048C18.608 18.4048 20.958 17.8947 22.6459 17.5283C24.295 17.1703 25.3121 16.9495 25.3121 17.4756C25.3121 22.1119 21.0952 25.8697 15.9572 25.8697C10.8191 25.8697 6.70605 22.1113 6.70605 17.475C6.70605 16.9479 7.72352 17.169 9.37305 17.5275L9.37306 17.5275C11.0609 17.8942 13.4106 18.4048 16.0091 18.4048ZM21.4179 19.067C20.1956 19.3868 18.3222 19.877 16 19.877C13.6778 19.877 11.8044 19.3868 10.5821 19.067C9.56611 18.8011 9 18.653 9 19.002C9 22.3509 14.089 22.502 16 22.502C18.1455 22.502 23 22.3509 23 19.002C23 18.653 22.4339 18.8011 21.4179 19.067ZM21.6875 11.3866C21.6875 12.5386 20.953 13.4725 20.0469 13.4725C19.1408 13.4725 18.4062 12.5386 18.4062 11.3866C18.4062 10.2346 19.1408 9.30066 20.0469 9.30066C20.953 9.30066 21.6875 10.2346 21.6875 11.3866ZM11.2969 13.4725C12.203 13.4725 12.9375 12.5386 12.9375 11.3866C12.9375 10.2346 12.203 9.30066 11.2969 9.30066C10.3908 9.30066 9.65625 10.2346 9.65625 11.3866C9.65625 12.5386 10.3908 13.4725 11.2969 13.4725Z" clip-rule="evenodd"/></mask><path fill="#fff" fill-opacity=".7" fill-rule="evenodd" d="M16 2C23.732 2 30 8.26801 30 16C30 23.732 23.732 30 16 30C8.26801 30 2 23.732 2 16C2 8.26801 8.26801 2 16 2ZM16.0091 18.4048C18.608 18.4048 20.958 17.8947 22.6459 17.5283C24.295 17.1703 25.3121 16.9495 25.3121 17.4756C25.3121 22.1119 21.0952 25.8697 15.9572 25.8697C10.8191 25.8697 6.70605 22.1113 6.70605 17.475C6.70605 16.9479 7.72352 17.169 9.37305 17.5275L9.37306 17.5275C11.0609 17.8942 13.4106 18.4048 16.0091 18.4048ZM21.4179 19.067C20.1956 19.3868 18.3222 19.877 16 19.877C13.6778 19.877 11.8044 19.3868 10.5821 19.067C9.56611 18.8011 9 18.653 9 19.002C9 22.3509 14.089 22.502 16 22.502C18.1455 22.502 23 22.3509 23 19.002C23 18.653 22.4339 18.8011 21.4179 19.067ZM21.6875 11.3866C21.6875 12.5386 20.953 13.4725 20.0469 13.4725C19.1408 13.4725 18.4062 12.5386 18.4062 11.3866C18.4062 10.2346 19.1408 9.30066 20.0469 9.30066C20.953 9.30066 21.6875 10.2346 21.6875 11.3866ZM11.2969 13.4725C12.203 13.4725 12.9375 12.5386 12.9375 11.3866C12.9375 10.2346 12.203 9.30066 11.2969 9.30066C10.3908 9.30066 9.65625 10.2346 9.65625 11.3866C9.65625 12.5386 10.3908 13.4725 11.2969 13.4725Z" clip-rule="evenodd"/><path fill="#000" fill-opacity=".3" d="M22.6459 17.5283L22.2216 15.5738H22.2216L22.6459 17.5283ZM9.37305 17.5275L8.94836 19.4819L8.99155 19.4912L9.03512 19.4987L9.37305 17.5275ZM9.37306 17.5275L9.79775 15.5731L9.75456 15.5637L9.71099 15.5562L9.37306 17.5275ZM21.4179 19.067L21.9242 21.0018H21.9242L21.4179 19.067ZM10.5821 19.067L10.0758 21.0018H10.0758L10.5821 19.067ZM32 16C32 7.16344 24.8366 0 16 0V4C22.6274 4 28 9.37258 28 16H32ZM16 32C24.8366 32 32 24.8366 32 16H28C28 22.6274 22.6274 28 16 28V32ZM0 16C0 24.8366 7.16344 32 16 32V28C9.37258 28 4 22.6274 4 16H0ZM16 0C7.16344 0 0 7.16344 0 16H4C4 9.37258 9.37258 4 16 4V0ZM22.2216 15.5738C20.526 15.9419 18.3682 16.4048 16.0091 16.4048V20.4048C18.8479 20.4048 21.39 19.8475 23.0702 19.4827L22.2216 15.5738ZM27.3121 17.4756C27.3121 17.0764 27.2104 16.5961 26.8947 16.1526C26.5858 15.7183 26.185 15.4785 25.8601 15.3506C25.2952 15.1281 24.7316 15.1549 24.4493 15.1759C23.814 15.223 22.9788 15.4094 22.2216 15.5738L23.0702 19.4827C23.4893 19.3917 23.8365 19.3165 24.1353 19.2592C24.4416 19.2003 24.6327 19.1733 24.7455 19.1649C24.799 19.1609 24.7975 19.1642 24.7579 19.1614C24.7267 19.1591 24.5855 19.1476 24.3947 19.0725C24.1909 18.9922 23.8825 18.8186 23.6356 18.4716C23.3821 18.1153 23.3121 17.7432 23.3121 17.4756H27.3121ZM15.9572 27.8697C21.9862 27.8697 27.3121 23.4186 27.3121 17.4756H23.3121C23.3121 20.8052 20.2042 23.8697 15.9572 23.8697V27.8697ZM4.70605 17.475C4.70605 23.3904 9.8976 27.8697 15.9572 27.8697V23.8697C11.7407 23.8697 8.70605 20.8322 8.70605 17.475H4.70605ZM9.79773 15.5731C9.04046 15.4085 8.20478 15.2219 7.56908 15.1747C7.28657 15.1537 6.72242 15.1269 6.157 15.3499C5.83172 15.4782 5.4312 15.7185 5.12259 16.1529C4.80749 16.5964 4.70605 17.0763 4.70605 17.475H8.70605C8.70605 17.7419 8.63642 18.1134 8.3834 18.4696C8.13688 18.8165 7.82874 18.9904 7.62461 19.0709C7.43367 19.1463 7.29218 19.1579 7.26082 19.1601C7.22108 19.163 7.21943 19.1597 7.27288 19.1637C7.38555 19.172 7.57662 19.1991 7.88306 19.258C8.18184 19.3154 8.52911 19.3908 8.94836 19.4819L9.79773 15.5731ZM9.71099 15.5562L9.71097 15.5562L9.03512 19.4987L9.03514 19.4987L9.71099 15.5562ZM16.0091 16.4048C13.6507 16.4048 11.4934 15.9415 9.79775 15.5731L8.94838 19.4819C10.6285 19.8469 13.1705 20.4048 16.0091 20.4048V16.4048ZM16 21.877C18.5988 21.877 20.6865 21.3257 21.9242 21.0018L20.9116 17.1321C19.7047 17.4479 18.0456 17.877 16 17.877V21.877ZM10.0758 21.0018C11.3135 21.3257 13.4012 21.877 16 21.877V17.877C13.9544 17.877 12.2953 17.4479 11.0884 17.1321L10.0758 21.0018ZM11 19.002C11 19.2265 10.9535 19.5724 10.7369 19.9299C10.5124 20.3007 10.1994 20.5279 9.92527 20.6513C9.67605 20.7635 9.46863 20.7873 9.37687 20.7939C9.27783 20.8011 9.21594 20.7945 9.21262 20.7942C9.20505 20.7934 9.22016 20.7946 9.26636 20.8033C9.31101 20.8117 9.37099 20.8244 9.4509 20.8431C9.61599 20.8817 9.8141 20.9334 10.0758 21.0018L11.0884 17.1321C10.6593 17.0198 10.0732 16.8599 9.60749 16.8137C9.41316 16.7944 8.85928 16.7446 8.28339 17.0038C7.94028 17.1582 7.57519 17.4291 7.31568 17.8575C7.06422 18.2726 7 18.6902 7 19.002H11ZM16 20.502C15.0544 20.502 13.5654 20.4568 12.3616 20.0933C11.7651 19.9131 11.3998 19.7005 11.2077 19.5167C11.0719 19.3867 11 19.2623 11 19.002H7C7 20.4162 7.56422 21.5665 8.44228 22.4067C9.26409 23.1931 10.2905 23.6462 11.2051 23.9224C13.0236 24.4716 15.0346 24.502 16 24.502V20.502ZM21 19.002C21 19.2929 20.9189 19.4232 20.7989 19.5424C20.6258 19.7142 20.2888 19.92 19.7159 20.0964C18.5512 20.4552 17.0738 20.502 16 20.502V24.502C17.0717 24.502 19.0943 24.4733 20.8933 23.9192C21.8021 23.6393 22.8129 23.1794 23.617 22.381C24.4743 21.5299 25 20.3855 25 19.002H21ZM21.9242 21.0018C22.1859 20.9334 22.384 20.8817 22.5491 20.8431C22.629 20.8244 22.689 20.8117 22.7336 20.8033C22.7798 20.7946 22.7949 20.7934 22.7874 20.7942C22.7841 20.7945 22.7222 20.8011 22.6231 20.7939C22.5314 20.7873 22.3239 20.7635 22.0747 20.6513C21.8006 20.5279 21.4876 20.3007 21.2631 19.9299C21.0465 19.5724 21 19.2265 21 19.002H25C25 18.6902 24.9358 18.2726 24.6843 17.8575C24.4248 17.4291 24.0597 17.1582 23.7166 17.0038C23.1407 16.7446 22.5868 16.7944 22.3925 16.8137C21.9268 16.8599 21.3407 17.0198 20.9116 17.1321L21.9242 21.0018ZM20.0469 15.4725C22.4783 15.4725 23.6875 13.1691 23.6875 11.3866H19.6875C19.6875 11.5488 19.6339 11.6264 19.635 11.6251C19.6378 11.6215 19.6671 11.5853 19.7382 11.5471C19.8139 11.5064 19.9216 11.4725 20.0469 11.4725V15.4725ZM16.4062 11.3866C16.4062 13.1691 17.6154 15.4725 20.0469 15.4725V11.4725C20.1721 11.4725 20.2799 11.5064 20.3555 11.5471C20.4266 11.5853 20.4559 11.6215 20.4588 11.6251C20.4599 11.6264 20.4062 11.5488 20.4062 11.3866H16.4062ZM20.0469 7.30066C17.6154 7.30066 16.4062 9.60406 16.4062 11.3866H20.4062C20.4062 11.2244 20.4599 11.1467 20.4588 11.148C20.4559 11.1517 20.4266 11.1878 20.3555 11.226C20.2799 11.2667 20.1721 11.3007 20.0469 11.3007V7.30066ZM23.6875 11.3866C23.6875 9.60406 22.4783 7.30066 20.0469 7.30066V11.3007C19.9216 11.3007 19.8139 11.2667 19.7382 11.226C19.6671 11.1878 19.6378 11.1517 19.635 11.148C19.6339 11.1467 19.6875 11.2244 19.6875 11.3866H23.6875ZM10.9375 11.3866C10.9375 11.5488 10.8839 11.6264 10.885 11.6251C10.8878 11.6215 10.9171 11.5853 10.9882 11.5471C11.0639 11.5064 11.1716 11.4725 11.2969 11.4725V15.4725C13.7283 15.4725 14.9375 13.1691 14.9375 11.3866H10.9375ZM11.2969 11.3007C11.1716 11.3007 11.0639 11.2667 10.9882 11.226C10.9171 11.1878 10.8878 11.1517 10.885 11.148C10.8839 11.1467 10.9375 11.2244 10.9375 11.3866H14.9375C14.9375 9.60406 13.7283 7.30066 11.2969 7.30066V11.3007ZM11.6562 11.3866C11.6562 11.2244 11.7099 11.1467 11.7088 11.148C11.7059 11.1517 11.6766 11.1878 11.6055 11.226C11.5299 11.2667 11.4222 11.3007 11.2969 11.3007V7.30066C8.86541 7.30066 7.65625 9.60406 7.65625 11.3866H11.6562ZM11.2969 11.4725C11.4222 11.4725 11.5299 11.5064 11.6055 11.5471C11.6766 11.5853 11.7059 11.6215 11.7088 11.6251C11.7099 11.6264 11.6562 11.5488 11.6562 11.3866H7.65625C7.65625 13.1691 8.86541 15.4725 11.2969 15.4725V11.4725Z" mask="url(#path-1-outside-1)"/></svg>