<svg xmlns="http://www.w3.org/2000/svg" width="702.64" height="227.09" fill="none" version="1.1" viewBox="0 0 702.64 227.09"><metadata/><path fill="url(#paint0_radial)" d="m276.57 553.56c152.75 0 276.57-123.5 276.57-275.84s-123.83-275.84-276.57-275.84c-152.75 0-276.57 123.5-276.57 275.84s123.82 275.84 276.57 275.84z" clip-path="url(#clipPath960)" opacity=".19"/><path fill="url(#paint1_radial)" d="m276.57 488.32c116.62 0 211.17-94.293 211.17-210.61s-94.542-210.61-211.17-210.61-211.17 94.293-211.17 210.61 94.542 210.61 211.17 210.61z" clip-path="url(#clipPath956)" opacity=".54"/><path fill="#0028ba" d="m276.57 441.72c90.822 0 164.45-73.431 164.45-164.01s-73.626-164.01-164.45-164.01-164.45 73.431-164.45 164.01 73.626 164.01 164.45 164.01z" clip-path="url(#clipPath952)"/><path fill="url(#paint2_radial)" d="m426.07 486.45c116.62 0 211.17-94.293 211.17-210.61s-94.542-210.61-211.17-210.61-211.17 94.293-211.17 210.61 94.543 210.61 211.17 210.61z" clip-path="url(#clipPath948)"/><path fill="url(#paint3_radial)" d="m426.07 551.68c152.75 0 276.57-123.5 276.57-275.84s-123.82-275.84-276.57-275.84-276.57 123.5-276.57 275.84 123.82 275.84 276.57 275.84z" clip-path="url(#clipPath944)" opacity=".4"/><path fill="#ff001a" d="m426.07 439.86c90.822 0 164.45-73.431 164.45-164.01 0-90.582-73.626-164.01-164.45-164.01-90.823 0-164.45 73.432-164.45 164.01 0 90.583 73.625 164.01 164.45 164.01z" clip-path="url(#clipPath940)"/><path fill="url(#paint4_radial)" d="m426.07 704.52c152.75 0 276.57-123.5 276.57-275.84s-123.82-275.84-276.57-275.84-276.57 123.5-276.57 275.84 123.82 275.84 276.57 275.84z" clip-path="url(#clipPath936)" opacity=".4"/><path fill="url(#paint5_radial)" d="m426.07 639.28c116.62 0 211.17-94.293 211.17-210.61s-94.542-210.61-211.17-210.61-211.17 94.293-211.17 210.61 94.543 210.61 211.17 210.61z" clip-path="url(#clipPath932)"/><path fill="url(#paint6_radial)" d="m276.57 702.65c152.75 0 276.57-123.5 276.57-275.84s-123.83-275.84-276.57-275.84c-152.75 0-276.57 123.5-276.57 275.84s123.82 275.84 276.57 275.84z" clip-path="url(#clipPath928)" opacity=".19"/><path fill="url(#paint7_radial)" d="m276.57 637.42c116.62 0 211.17-94.293 211.17-210.61s-94.542-210.61-211.17-210.61-211.17 94.293-211.17 210.61 94.542 210.61 211.17 210.61z" clip-path="url(#clipPath924)" opacity=".54"/><path fill="#000" d="m426.07 589.46h-151.37c-89.699 0-164.45-72.688-164.45-164.01v-149.1c0-89.462 72.88-164.01 164.45-164.01h151.37c89.699 0 164.45 72.688 164.45 164.01v149.1c0 91.326-74.749 164.01-164.45 164.01z" clip-path="url(#clipPath920)"/><defs><radialGradient id="paint0_radial" cx="0" cy="0" r="1" gradientTransform="matrix(244.36,130.59,-130.4,244,275.06,280.39)" gradientUnits="userSpaceOnUse"><stop offset="0" stop-color="#0028BA" stop-opacity=".3"/><stop offset="1" stop-color="#007AFF"/></radialGradient><radialGradient id="paint1_radial" cx="0" cy="0" r="1" gradientTransform="matrix(186.56,99.703,-99.557,186.28,275.06,280.38)" gradientUnits="userSpaceOnUse"><stop offset="0" stop-color="#0028BA" stop-opacity=".3"/><stop offset="1" stop-color="#007AFF"/></radialGradient><radialGradient id="paint2_radial" cx="0" cy="0" r="1" gradientTransform="matrix(186.56,99.703,-99.557,186.28,425.22,278.53)" gradientUnits="userSpaceOnUse"><stop offset="0" stop-color="#FF3ED6" stop-opacity="0"/><stop offset=".573" stop-color="#EC1E79" stop-opacity=".2"/><stop offset="1" stop-color="#FF001A" stop-opacity=".4"/></radialGradient><radialGradient id="paint3_radial" cx="0" cy="0" r="1" gradientTransform="matrix(244.36,130.59,-130.4,244,425.22,278.53)" gradientUnits="userSpaceOnUse"><stop offset="0" stop-color="#FF3ED6" stop-opacity="0"/><stop offset=".573" stop-color="#EC1E79" stop-opacity=".2"/><stop offset="1" stop-color="#FF001A" stop-opacity=".4"/></radialGradient><radialGradient id="paint4_radial" cx="0" cy="0" r="1" gradientTransform="matrix(244.36,130.59,-130.4,244,425.22,431.26)" gradientUnits="userSpaceOnUse"><stop offset="0" stop-color="#FF3ED6" stop-opacity="0"/><stop offset=".573" stop-color="#EC1E79" stop-opacity=".2"/><stop offset="1" stop-color="#FF52DE"/></radialGradient><radialGradient id="paint5_radial" cx="0" cy="0" r="1" gradientTransform="matrix(186.56,99.703,-99.557,186.28,425.22,431.26)" gradientUnits="userSpaceOnUse"><stop offset="0" stop-color="#FF3ED6" stop-opacity="0"/><stop offset=".573" stop-color="#EC1E79" stop-opacity=".2"/><stop offset="1" stop-color="#FF52DE" stop-opacity=".7"/></radialGradient><radialGradient id="paint6_radial" cx="0" cy="0" r="1" gradientTransform="matrix(244.36,130.59,-130.4,244,275.35,428.92)" gradientUnits="userSpaceOnUse"><stop offset="0" stop-color="#0028BA" stop-opacity=".3"/><stop offset="1" stop-color="#0028BA" stop-opacity=".9"/></radialGradient><radialGradient id="paint7_radial" cx="0" cy="0" r="1" gradientTransform="matrix(186.56,99.703,-99.557,186.28,275.35,428.92)" gradientUnits="userSpaceOnUse"><stop offset="0" stop-color="#0028BA" stop-opacity=".3"/><stop offset="1" stop-color="#0028BA"/></radialGradient><clipPath id="clipPath920"><rect width="1096" height="375.26" x="-204.25" y="-148.17" fill="#8e9297" stroke="#000" stroke-width=".5" ry="35.077" style="paint-order:stroke fill markers"/></clipPath><clipPath id="clipPath924"><rect width="1096" height="375.26" x="-204.25" y="-148.17" fill="#8e9297" stroke="#000" stroke-width=".5" ry="35.077" style="paint-order:stroke fill markers"/></clipPath><clipPath id="clipPath928"><rect width="1096" height="375.26" x="-204.25" y="-148.17" fill="#8e9297" stroke="#000" stroke-width=".5" ry="35.077" style="paint-order:stroke fill markers"/></clipPath><clipPath id="clipPath932"><rect width="1096" height="375.26" x="-204.25" y="-148.17" fill="#8e9297" stroke="#000" stroke-width=".5" ry="35.077" style="paint-order:stroke fill markers"/></clipPath><clipPath id="clipPath936"><rect width="1096" height="375.26" x="-204.25" y="-148.17" fill="#8e9297" stroke="#000" stroke-width=".5" ry="35.077" style="paint-order:stroke fill markers"/></clipPath><clipPath id="clipPath940"><rect width="1096" height="375.26" x="-204.25" y="-148.17" fill="#8e9297" stroke="#000" stroke-width=".5" ry="35.077" style="paint-order:stroke fill markers"/></clipPath><clipPath id="clipPath944"><rect width="1096" height="375.26" x="-204.25" y="-148.17" fill="#8e9297" stroke="#000" stroke-width=".5" ry="35.077" style="paint-order:stroke fill markers"/></clipPath><clipPath id="clipPath948"><rect width="1096" height="375.26" x="-204.25" y="-148.17" fill="#8e9297" stroke="#000" stroke-width=".5" ry="35.077" style="paint-order:stroke fill markers"/></clipPath><clipPath id="clipPath952"><rect width="1096" height="375.26" x="-204.25" y="-148.17" fill="#8e9297" stroke="#000" stroke-width=".5" ry="35.077" style="paint-order:stroke fill markers"/></clipPath><clipPath id="clipPath956"><rect width="1096" height="375.26" x="-204.25" y="-148.17" fill="#8e9297" stroke="#000" stroke-width=".5" ry="35.077" style="paint-order:stroke fill markers"/></clipPath><clipPath id="clipPath960"><rect width="1096" height="375.26" x="-204.25" y="-148.17" fill="#8e9297" stroke="#000" stroke-width=".5" ry="35.077" style="paint-order:stroke fill markers"/></clipPath></defs></svg>