<svg xmlns="http://www.w3.org/2000/svg" width="132.6" height="132.6" version="1.1" viewBox="0 0 132.6 132.6" xml:space="preserve"><metadata/><style type="text/css">.st0{fill:#008bef}.st1{fill:#fff}</style><g transform="translate(-5.5,-6.2)"><circle cx="71.8" cy="72.5" r="65.1" fill="#008bef" class="st0"/><path fill="#fff" d="m71.8 138.8c-36.6 0-66.3-29.7-66.3-66.3s29.7-66.3 66.3-66.3 66.3 29.7 66.3 66.3-29.8 66.3-66.3 66.3zm0-130.3c-35.3 0-64 28.7-64 64s28.7 63.9 63.9 63.9 63.9-28.7 63.9-63.9-28.6-64-63.8-64z" class="st1"/><path fill="#fff" d="m107.5 68.7-52.7-30.4c-2.5-1.4-5.6 0.4-5.6 3.2v60.8c0 2.9 3.1 4.6 5.6 3.2l52.7-30.4c2.4-1.4 2.4-5 0-6.4z" class="st1"/></g></svg>